<svg xmlns="http://www.w3.org/2000/svg" xmlns:xlink="http://www.w3.org/1999/xlink" width="500" zoomAndPan="magnify" viewBox="0 0 375 374.999991" height="500" preserveAspectRatio="xMidYMid meet" version="1.0"><defs><clipPath id="860d6c0858"><path d="M 98 11.03125 L 265 11.03125 L 265 361 L 98 361 Z M 98 11.03125 " clip-rule="nonzero"/></clipPath><clipPath id="96c3c43d79"><path d="M 145.777344 209.195312 L 162.738281 209.195312 L 162.738281 226.15625 L 145.777344 226.15625 Z M 145.777344 209.195312 " clip-rule="nonzero"/></clipPath><clipPath id="65995d5fb0"><path d="M 154.257812 209.195312 C 149.574219 209.195312 145.777344 212.992188 145.777344 217.675781 C 145.777344 222.359375 149.574219 226.15625 154.257812 226.15625 C 158.941406 226.15625 162.738281 222.359375 162.738281 217.675781 C 162.738281 212.992188 158.941406 209.195312 154.257812 209.195312 Z M 154.257812 209.195312 " clip-rule="nonzero"/></clipPath></defs><g clip-path="url(#860d6c0858)"><path fill="#000000" d="M 141.691406 282.394531 C 147.851562 274.28125 154.796875 267.53125 162.386719 256.1875 C 159.308594 257.984375 157.660156 258.917969 154.867188 260.28125 C 166.039062 250.515625 177.210938 236.730469 181.078125 222.875 C 183.011719 216.050781 182.941406 193.867188 179.003906 183.957031 C 176.066406 187.476562 172.988281 191.136719 169.980469 194.65625 C 173.128906 189.628906 177.425781 180.65625 179.21875 174.910156 C 174.632812 181.371094 169.191406 186.542969 163.605469 191.136719 C 169.90625 183.742188 175.566406 175.84375 177.355469 172.109375 C 171.914062 147.195312 187.382812 127.019531 195.1875 105.480469 L 184.945312 108.136719 C 189.960938 105.40625 195.402344 102.535156 197.835938 99.449219 C 206.574219 78.914062 213.59375 33.464844 192.824219 11.566406 C 197.40625 23.988281 196.546875 38.707031 189.386719 50.195312 C 189.960938 53.710938 190.246094 55.9375 190.316406 60.316406 L 187.523438 52.132812 C 184.515625 62.617188 174.777344 75.753906 169.835938 83.867188 C 169.90625 87.601562 169.835938 90.832031 169.476562 95.140625 L 168.261719 88.246094 C 154.582031 107.847656 136.25 124.652344 124.289062 143.75 C 111.757812 163.710938 109.179688 183.167969 118.417969 212.535156 C 110.46875 198.390625 108.679688 181.15625 109.753906 172.039062 C 102.019531 185.25 99.082031 203.988281 101.730469 219.066406 L 98.652344 216.050781 C 97.722656 230.914062 104.953125 245.203125 114.835938 260.351562 L 107.605469 254.179688 C 114.765625 266.3125 124.792969 276.722656 130.878906 282.46875 C 126.652344 248.503906 128.515625 213.109375 136.320312 182.234375 C 141.261719 162.921875 148.496094 145.328125 157.375 127.738281 C 161.671875 119.195312 188.3125 76.257812 192.824219 65.917969 C 188.457031 79.273438 162.601562 122.28125 157.804688 132.40625 C 140.6875 168.734375 132.742188 200.542969 131.953125 245.632812 C 131.738281 257.625 132.667969 273.203125 133.8125 285.484375 L 123 285.484375 C 122.140625 285.484375 121.355469 286.199219 121.355469 287.132812 C 121.355469 287.996094 122.070312 288.785156 123 288.785156 L 147.992188 288.785156 C 148.851562 288.785156 149.640625 288.066406 149.640625 287.132812 C 149.640625 286.273438 148.925781 285.484375 147.992188 285.484375 L 136.964844 285.484375 C 135.890625 275.429688 135.03125 260.640625 135.316406 244.558594 C 135.820312 217.992188 138.96875 188.550781 145.058594 175.773438 C 139.042969 198.53125 136.390625 244.125 141.691406 282.394531 Z M 135.746094 351.753906 C 167.832031 360.800781 206.289062 359.582031 239.300781 352.542969 C 276.972656 344.503906 250.617188 337.824219 225.625 334.523438 C 216.027344 333.230469 176.710938 327.628906 186.738281 318.4375 C 197.121094 308.816406 233 319.730469 240.449219 306.734375 C 245.960938 297.257812 245.605469 297.257812 259.710938 293.8125 C 261.71875 293.308594 262.503906 292.878906 263.078125 291.730469 C 262.289062 293.667969 260.285156 293.882812 257.132812 294.746094 C 243.527344 298.40625 246.75 302.5 242.523438 309.175781 C 235.507812 320.378906 194.6875 314.847656 192.179688 320.738281 C 189.53125 327.054688 235.003906 331.867188 242.597656 333.300781 C 266.445312 337.898438 274.824219 347.085938 249.257812 354.195312 C 214.308594 363.746094 168.90625 363.027344 135.746094 351.753906 Z M 118.203125 322.027344 C 125.578125 329.566406 132.527344 337.824219 134.457031 349.886719 L 134.671875 349.886719 L 134.671875 321.742188 C 133.3125 321.382812 132.3125 320.164062 132.3125 318.65625 C 132.3125 316.929688 133.742188 315.496094 135.460938 315.496094 C 137.179688 315.496094 138.613281 316.929688 138.613281 318.65625 C 138.613281 320.089844 137.609375 321.382812 136.25 321.742188 L 136.25 349.816406 L 136.464844 349.816406 C 138.398438 337.753906 145.273438 329.496094 152.71875 321.957031 C 149.28125 313.414062 146.917969 303.074219 145.199219 291.871094 L 125.722656 291.871094 C 124.074219 303.144531 121.640625 313.414062 118.203125 322.027344 Z M 118.203125 322.027344 " fill-opacity="1" fill-rule="evenodd"/></g><g clip-path="url(#96c3c43d79)"><g clip-path="url(#65995d5fb0)"><path fill="#000000" d="M 145.777344 209.195312 L 162.738281 209.195312 L 162.738281 226.15625 L 145.777344 226.15625 Z M 145.777344 209.195312 " fill-opacity="1" fill-rule="nonzero"/></g></g></svg>