<svg xmlns="http://www.w3.org/2000/svg" xmlns:xlink="http://www.w3.org/1999/xlink" width="500" zoomAndPan="magnify" viewBox="0 0 375 374.999991" height="500" preserveAspectRatio="xMidYMid meet" version="1.2"><defs><clipPath id="d9e9d307da"><path d="M 22.332031 2.542969 L 349.332031 2.542969 L 349.332031 370.792969 L 22.332031 370.792969 Z M 22.332031 2.542969 "/></clipPath></defs><g id="6e03309a53"><g clip-rule="nonzero" clip-path="url(#d9e9d307da)"><path style=" stroke:none;fill-rule:evenodd;fill:#f13223;fill-opacity:1;" d="M 302.273438 292.445312 C 283.953125 303.070312 263.925781 309.851562 243.476562 312.414062 C 260.097656 306.039062 275.4375 296.695312 289.496094 284.382812 C 296.746094 278.007812 301.429688 272.042969 312.929688 272.042969 C 319.316406 272.042969 325.707031 275.039062 330.832031 279.695312 C 335.9375 284.789062 338.5 291.164062 338.5 297.976562 C 338.5 304.324219 336.359375 310.699219 331.675781 316.230469 C 307.398438 340.445312 275.859375 354.882812 243.476562 359.132812 C 263.082031 351.070312 281.40625 339.164062 297.167969 323.445312 C 301.429688 319.195312 305.679688 314.539062 309.101562 309.445312 C 312.507812 304.757812 320.597656 295.414062 315.492188 289.886719 C 314.210938 288.632812 312.507812 288.195312 310.382812 288.195312 C 307.820312 288.195312 304.414062 291.164062 302.273438 292.445312 Z M 34.691406 186.667969 C 39.375 156.933594 53.007812 128.886719 75.164062 105.949219 C 67.921875 124.652344 64.511719 143.761719 64.511719 163.308594 C 64.511719 170.949219 64.941406 179.011719 66.222656 186.667969 C 64.941406 194.320312 64.511719 201.949219 64.511719 210.039062 C 64.511719 229.136719 67.921875 248.695312 75.164062 267.382812 C 53.007812 244.445312 39.375 215.980469 34.691406 186.667969 Z M 76.445312 186.667969 C 81.132812 156.074219 95.621094 127.199219 119.054688 103.824219 C 142.914062 80.042969 173.171875 65.605469 204.28125 61.355469 C 231.980469 65.167969 259.238281 76.636719 281.828125 96.183594 C 291.199219 104.261719 298.011719 111.902344 312.929688 111.480469 C 321.878906 111.480469 331.253906 108.074219 338.5 100.855469 C 345.3125 93.636719 348.71875 84.714844 349.15625 75.792969 C 349.15625 66.449219 345.734375 57.105469 339.34375 49.886719 C 307.820312 18.449219 266.484375 2.730469 225.574219 2.730469 C 218.34375 2.730469 211.09375 3.167969 204.28125 4.011719 C 197.457031 3.167969 190.207031 2.730469 183.398438 2.730469 C 142.0625 2.730469 101.160156 18.449219 69.628906 49.886719 C 38.09375 81.324219 22.332031 122.105469 22.332031 163.308594 C 22.332031 170.949219 23.183594 179.011719 24.035156 186.667969 C 23.183594 194.324219 22.332031 201.949219 22.332031 210.042969 C 22.332031 251.230469 38.09375 292.011719 69.628906 323.445312 C 101.160156 354.476562 142.0625 370.601562 183.398438 370.601562 C 190.207031 370.601562 197.457031 369.757812 204.28125 369.320312 C 211.09375 369.757812 218.339844 370.601562 225.574219 370.601562 C 266.484375 370.601562 307.820312 354.476562 339.34375 323.445312 C 345.734375 316.230469 349.152344 306.882812 349.152344 297.539062 C 348.71875 288.195312 345.3125 279.261719 338.5 272.042969 C 331.253906 265.257812 321.878906 261.851562 312.929688 261.851562 C 298.011719 261.445312 291.199219 268.664062 281.828125 277.136719 C 259.238281 296.261719 231.980469 308.164062 204.28125 311.980469 C 173.171875 307.320312 142.914062 293.289062 119.054688 269.507812 C 95.621094 246.136719 81.132812 216.824219 76.445312 186.667969 Z M 289.917969 316.230469 L 289.496094 316.230469 C 266.066406 340.011719 235.804688 354.039062 204.28125 358.699219 C 173.171875 354.039062 142.914062 340.011719 119.054688 316.230469 C 115.648438 312.824219 112.664062 309.445312 110.109375 306.039062 C 132.691406 317.917969 158.253906 323.882812 183.398438 323.882812 C 190.207031 323.882812 197.457031 323.445312 204.28125 322.601562 C 211.09375 323.445312 218.34375 323.882812 225.574219 323.882812 C 250.726562 323.882812 275.859375 317.917969 298.449219 306.449219 C 295.886719 309.851562 292.902344 313.257812 289.917969 316.230469 Z M 33.410156 221.917969 C 41.078125 241.886719 53.4375 260.574219 69.628906 276.726562 C 75.164062 282.257812 81.132812 287.351562 87.097656 292.011719 C 93.488281 303.070312 101.589844 313.695312 111.382812 323.445312 C 127.152344 339.164062 145.898438 351.070312 165.074219 359.132812 C 132.691406 354.882812 101.589844 340.445312 76.875 316.230469 C 50.882812 289.886719 36.394531 255.917969 33.410156 221.917969 Z M 94.769531 284.792969 C 83.6875 265.261719 76.875 243.601562 75.164062 221.917969 C 83.265625 241.886719 95.191406 260.574219 111.382812 276.726562 C 127.152344 292.855469 145.898438 304.324219 165.074219 312.414062 C 139.929688 309.007812 116.070312 300.101562 94.769531 284.792969 Z M 331.675781 57.105469 Z M 75.164062 151.417969 C 76.875 129.746094 83.6875 108.074219 94.769531 88.542969 C 116.070312 72.824219 139.929688 63.902344 165.074219 60.917969 C 145.898438 68.574219 127.152344 80.480469 111.382812 96.605469 C 95.191406 112.761719 83.265625 131.449219 75.164062 151.417969 Z M 289.496094 88.964844 C 275.4375 76.636719 260.097656 67.292969 243.476562 60.917969 C 263.925781 63.480469 283.953125 69.855469 302.273438 80.480469 C 304.414062 82.167969 307.820312 84.714844 310.382812 84.714844 C 312.507812 84.714844 314.210938 84.292969 315.488281 83.011719 C 320.597656 77.917969 312.507812 68.574219 309.101562 63.480469 C 305.679688 58.386719 301.429688 53.699219 297.167969 49.886719 C 281.40625 34.167969 263.082031 22.265625 243.476562 14.199219 C 275.859375 18.449219 307.398438 32.464844 331.675781 57.105469 C 336.359375 62.636719 338.5 68.574219 338.5 75.371094 C 338.5 81.746094 335.9375 88.542969 330.828125 93.636719 C 325.707031 98.308594 319.316406 100.855469 312.929688 100.855469 C 301.429688 101.292969 296.746094 94.917969 289.496094 88.964844 Z M 289.496094 57.105469 Z M 289.917969 57.105469 Z M 298.449219 66.886719 C 275.859375 55.417969 250.726562 49.449219 225.574219 49.449219 C 218.34375 49.449219 211.09375 49.886719 204.28125 50.730469 C 197.457031 49.886719 190.207031 49.449219 183.398438 49.449219 C 158.253906 49.449219 132.691406 55.417969 110.109375 66.886719 C 112.664062 63.480469 115.648438 60.511719 119.054688 57.105469 C 142.914062 33.324219 173.171875 19.292969 204.28125 14.636719 C 235.808594 19.292969 266.066406 33.324219 289.496094 57.105469 L 289.917969 57.105469 C 292.902344 60.074219 295.886719 63.480469 298.449219 66.886719 Z M 69.628906 96.605469 C 53.4375 112.761719 41.078125 131.449219 33.410156 151.417969 C 36.390625 117.417969 50.878906 83.449219 76.875 57.105469 C 101.585938 32.464844 132.691406 18.449219 165.074219 14.199219 C 145.898438 22.261719 127.152344 34.167969 111.382812 49.886719 C 101.589844 59.652344 93.488281 69.855469 87.097656 81.324219 C 81.132812 85.980469 75.164062 90.667969 69.628906 96.605469 Z M 69.628906 96.605469 "/></g></g></svg>